<svg width="32" height="32" viewBox="0 0 32 32" fill="none" xmlns="http://www.w3.org/2000/svg">
<g id="menu">
<path id="XMLID 943" d="M24.5402 9.99987H7.47357C6.51357 9.99987 5.74023 9.22654 5.74023 8.26654C5.74023 7.30654 6.51357 6.5332 7.47357 6.5332H24.5402C25.5002 6.5332 26.2736 7.30654 26.2736 8.26654C26.2736 9.22654 25.5002 9.99987 24.5402 9.99987ZM26.2736 15.9999C26.2736 15.0399 25.5002 14.2665 24.5402 14.2665H7.47357C6.51357 14.2665 5.74023 15.0399 5.74023 15.9999C5.74023 16.9599 6.51357 17.7332 7.47357 17.7332H24.5402C25.5002 17.7332 26.2736 16.9599 26.2736 15.9999ZM26.2736 23.7332C26.2736 22.7732 25.5002 21.9999 24.5402 21.9999H7.47357C6.51357 21.9999 5.74023 22.7732 5.74023 23.7332C5.74023 24.6932 6.51357 25.4665 7.47357 25.4665H24.5402C25.5002 25.4665 26.2736 24.6932 26.2736 23.7332Z" fill="#828282"/>
</g>
</svg>
