<svg width="25" height="8" viewBox="0 0 25 8" fill="none" xmlns="http://www.w3.org/2000/svg">
<g id="visa" clip-path="url(#clip0_312_99)">
<path id="Vector" d="M12.9303 2.54729C12.9161 3.65727 13.9325 4.27664 14.6981 4.64493C15.4848 5.02276 15.749 5.26508 15.7459 5.60301C15.7401 6.12011 15.1184 6.34836 14.5367 6.35722C13.5219 6.37274 12.9318 6.08676 12.4627 5.87048L12.0971 7.55905C12.5677 7.77313 13.4393 7.95982 14.343 7.96802C16.4644 7.96802 17.8523 6.93438 17.8598 5.33178C17.8681 3.29785 15.0096 3.18527 15.0292 2.27616C15.0359 2.0005 15.3024 1.70633 15.8863 1.63154C16.1754 1.59375 16.9733 1.56484 17.8779 1.97602L18.2329 0.342283C17.7464 0.16744 17.1212 1.81198e-05 16.3427 1.81198e-05C14.346 1.81198e-05 12.9416 1.04773 12.9303 2.54729ZM21.6446 0.140741C21.2572 0.140741 20.9307 0.363777 20.7851 0.706042L17.7547 7.84802H19.8746L20.2964 6.69727H22.8868L23.1315 7.84802H25L23.3695 0.140741H21.6446ZM21.9411 2.22276L22.5529 5.11693H20.8774L21.9411 2.22276ZM10.3601 0.140837L8.68915 7.84792H10.7092L12.3794 0.140645H10.3601V0.140837ZM7.37177 0.140645L5.26921 5.38662L4.41869 0.926187C4.31889 0.428259 3.92478 0.140741 3.48712 0.140741H0.0500938L0.00195312 0.364548C0.707561 0.51568 1.50925 0.759439 1.99496 1.02026C2.2922 1.17958 2.37696 1.31886 2.47461 1.69746L4.08551 7.84802H6.22021L9.49299 0.140741H7.37177" fill="url(#paint0_linear_312_99)"/>
</g>
<defs>
<linearGradient id="paint0_linear_312_99" x1="11.4945" y1="8.12786" x2="11.7222" y2="-0.0555634" gradientUnits="userSpaceOnUse">
<stop stop-color="#222357"/>
<stop offset="1" stop-color="#254AA5"/>
</linearGradient>
<clipPath id="clip0_312_99">
<rect width="25" height="8" fill="white"/>
</clipPath>
</defs>
</svg>
