<svg width="32" height="32" viewBox="0 0 32 32" fill="none" xmlns="http://www.w3.org/2000/svg">
<g id="heart/default">
<path id="Vector" d="M16.0001 6.12665C14.5473 4.79079 12.6458 4.04938 10.6721 4.04932C9.62752 4.0504 8.59344 4.25806 7.62939 4.66034C6.66534 5.06262 5.79036 5.65158 5.0548 6.39332C1.91747 9.54398 1.9188 14.472 5.05747 17.6093L14.8335 27.3853C15.0601 27.784 15.4975 28.0413 16.0001 28.0413C16.2065 28.0393 16.4096 27.9889 16.593 27.8942C16.7764 27.7995 16.935 27.6631 17.0561 27.496L26.9428 17.6093C30.0815 14.4706 30.0815 9.54398 26.9401 6.38798C26.205 5.64761 25.3307 5.05985 24.3676 4.65849C23.4045 4.25714 22.3715 4.05012 21.3281 4.04932C19.3546 4.04964 17.4531 4.79101 16.0001 6.12665ZM25.0548 8.27332C27.1388 10.368 27.1401 13.64 25.0575 15.724L16.0001 24.7813L6.9428 15.724C4.86014 13.64 4.86147 10.368 6.94014 8.27865C7.95347 7.27065 9.2788 6.71598 10.6721 6.71598C12.0655 6.71598 13.3855 7.27065 14.3908 8.27598L15.0575 8.94265C15.1812 9.06658 15.3281 9.16489 15.4899 9.23198C15.6516 9.29906 15.825 9.33358 16.0001 9.33358C16.1752 9.33358 16.3486 9.29906 16.5104 9.23198C16.6721 9.16489 16.8191 9.06658 16.9428 8.94265L17.6095 8.27598C19.6255 6.26398 23.0415 6.26932 25.0548 8.27332Z" fill="#828282"/>
</g>
</svg>
