<svg width="44" height="44" viewBox="0 0 44 44" fill="none" xmlns="http://www.w3.org/2000/svg">
<g id="logo/primary">
<path id="Vector" fill-rule="evenodd" clip-rule="evenodd" d="M24.9861 17.0799L31.4996 24.3172C31.5924 24.4206 31.6535 24.5486 31.6755 24.6859C31.6974 24.8231 31.6794 24.9638 31.6234 25.0911C31.567 25.2193 31.4741 25.3282 31.3563 25.4042C31.2386 25.4801 31.1011 25.5198 30.9609 25.5182H29.5136V30.5902C29.5136 30.7823 29.4373 30.9666 29.3015 31.1024C29.1656 31.2382 28.9814 31.3146 28.7892 31.3146H20.1056C19.9135 31.3146 19.7292 31.2382 19.5934 31.1024C19.4575 30.9666 19.3812 30.7823 19.3812 30.5902V25.5244H17.9339C17.7941 25.5246 17.6571 25.4841 17.5398 25.4079C17.4224 25.3318 17.3297 25.2232 17.2728 25.0954C17.216 24.9676 17.1974 24.8261 17.2195 24.6879C17.2415 24.5498 17.3031 24.421 17.3968 24.3172L23.9103 17.0799C23.9801 17.0077 24.0636 16.9502 24.156 16.911C24.2484 16.8718 24.3478 16.8516 24.4482 16.8516C24.5486 16.8516 24.648 16.8718 24.7404 16.911C24.8328 16.9502 24.9164 17.0077 24.9861 17.0799ZM25.774 26.5212C25.4532 26.7708 25.0688 26.9253 24.6645 26.9669C24.2601 27.0084 23.8523 26.9355 23.4874 26.7563C23.1226 26.5771 22.8155 26.299 22.6013 25.9536C22.387 25.6083 22.2742 25.2096 22.2758 24.8032C22.2758 24.5548 22.3182 24.3083 22.4011 24.0742C22.3609 24.0742 22.3191 24.0742 22.2758 24.0742C21.9895 24.0742 21.7097 23.9893 21.4717 23.8303C21.2337 23.6713 21.0482 23.4453 20.9387 23.1808C20.8291 22.9164 20.8005 22.6254 20.8563 22.3447C20.9121 22.064 21.05 21.8061 21.2524 21.6038C21.4548 21.4014 21.7127 21.2636 21.9934 21.2077C22.2742 21.1519 22.5651 21.1805 22.8296 21.2901C23.0941 21.3996 23.3201 21.5851 23.4791 21.8231C23.6381 22.061 23.723 22.3408 23.723 22.627C23.723 22.6704 23.723 22.7122 23.723 22.7524C23.9513 22.6719 24.1914 22.6295 24.4335 22.627H24.4908C24.9549 22.635 25.4041 22.7918 25.7724 23.0743C25.848 23.1327 25.9199 23.1958 25.9876 23.2632C26.0645 23.3406 26.1359 23.4233 26.2012 23.5108C26.4774 23.8839 26.6265 24.3359 26.6265 24.8001C26.6265 25.2643 26.4774 25.7163 26.2012 26.0894C26.137 26.1759 26.0667 26.2576 25.9907 26.3339C25.9223 26.4002 25.8499 26.4622 25.774 26.5196V26.5212Z" fill="#072AC8"/>
<path id="Vector_2" fill-rule="evenodd" clip-rule="evenodd" d="M34.1309 14.4318C32.259 12.5595 29.8923 11.2594 27.308 10.6837C24.7236 10.1081 22.0288 10.2808 19.5391 11.1815C19.2584 9.97095 18.6589 8.85751 17.8029 7.95669C16.9468 7.05587 15.8652 6.40047 14.6705 6.05849C13.4757 5.7165 12.2111 5.70038 11.008 6.01179C9.80489 6.32321 8.707 6.95081 7.82822 7.82951C6.94945 8.70822 6.32179 9.80601 6.01035 11.009C5.69891 12.212 5.71503 13.4765 6.05705 14.6712C6.39906 15.8659 7.05451 16.9473 7.95541 17.8033C8.8563 18.6593 9.96984 19.2587 11.1805 19.5394C10.3309 21.886 10.1275 24.4177 10.5914 26.8699C11.0553 29.3221 12.1695 31.6046 13.8175 33.4788C15.4656 35.353 17.5869 36.7501 19.9598 37.524C22.3326 38.2979 24.8698 38.4201 27.3061 37.8779C29.7423 37.3357 31.9882 36.149 33.8088 34.4419C35.6294 32.7348 36.9579 30.57 37.6554 28.1737C38.3529 25.7775 38.3938 23.2379 37.7738 20.8205C37.1538 18.4031 35.8957 16.1966 34.1309 14.4318V14.4318Z" stroke="#1E96FC" stroke-width="3" stroke-miterlimit="10"/>
</g>
</svg>
